<?xml version="1.0" encoding="UTF-8" standalone="no"?>
<!-- Created with Inkscape (http://www.inkscape.org/) -->

<svg
   version="1.1"
   id="svg192"
   width="932.28198"
   height="932.28198"
   viewBox="0 0 932.28198 932.28201"
   sodipodi:docname="Jesture.svg"
   inkscape:export-filename="../Documents/Jesture.svg"
   inkscape:export-xdpi="96"
   inkscape:export-ydpi="96"
   inkscape:version="1.2.2 (b0a8486541, 2022-12-01)"
   xmlns:inkscape="http://www.inkscape.org/namespaces/inkscape"
   xmlns:sodipodi="http://sodipodi.sourceforge.net/DTD/sodipodi-0.dtd"
   xmlns="http://www.w3.org/2000/svg"
   xmlns:svg="http://www.w3.org/2000/svg">
  <defs
     id="defs196">
    <inkscape:path-effect
       effect="bspline"
       id="path-effect338"
       is_visible="true"
       lpeversion="1"
       weight="33.333333"
       steps="2"
       helper_size="0"
       apply_no_weight="true"
       apply_with_weight="true"
       only_selected="false" />
    <inkscape:path-effect
       effect="bspline"
       id="path-effect334"
       is_visible="true"
       lpeversion="1"
       weight="33.333333"
       steps="2"
       helper_size="0"
       apply_no_weight="true"
       apply_with_weight="true"
       only_selected="false" />
    <clipPath
       clipPathUnits="userSpaceOnUse"
       id="clipPath281">
      <rect
         style="opacity:0.2;fill:#000000;stroke-width:1.02998"
         id="rect283"
         width="886.05127"
         height="966.03149"
         x="337.6947"
         y="265.90118" />
    </clipPath>
  </defs>
  <sodipodi:namedview
     id="namedview194"
     pagecolor="#ffffff"
     bordercolor="#000000"
     borderopacity="0.25"
     inkscape:showpageshadow="true"
     inkscape:pageopacity="0.0"
     inkscape:pagecheckerboard="true"
     inkscape:deskcolor="#d1d1d1"
     showgrid="false"
     showborder="false"
     inkscape:zoom="0.52030623"
     inkscape:cx="18.258478"
     inkscape:cy="499.70572"
     inkscape:window-width="1920"
     inkscape:window-height="1048"
     inkscape:window-x="0"
     inkscape:window-y="427"
     inkscape:window-maximized="1"
     inkscape:current-layer="g198" />
  <g
     inkscape:groupmode="layer"
     inkscape:label="Image"
     id="g198"
     clip-path="url(#clipPath281)"
     transform="translate(-322.49088,-276.45732)">
    <path
       style="fill:#ffffff"
       d="m 541.19064,359.73399 c -8.19429,0.52195 -17.21208,3.00505 -24.71333,8.17721 -7.50126,5.17216 -13.48504,13.03279 -17.29005,19.11171 -3.80501,6.07892 -5.43098,10.37543 -6.26744,16.29075 -0.83645,5.91531 -0.88355,13.4486 -1.55842,35.4818 -0.67488,22.03319 -1.97745,58.56471 -3.4258,103.7782 -1.44835,45.21348 -3.04238,99.10603 -3.89304,130.47291 -0.85066,31.36688 -0.95793,40.20664 -1.11973,46.86444 -0.1618,6.65781 -0.3781,11.13335 -1.47624,16.73172 -1.09814,5.59838 -3.0779,12.31954 -6.15303,22.72506 -3.07512,10.40551 -7.2454,24.49466 -10.69604,36.6743 -3.45064,12.17964 -6.18145,22.44902 -8.12707,31.32376 -1.94562,8.87475 -3.106,16.35422 -3.34354,28.3215 -0.23754,11.96728 0.44758,28.42134 2.18893,46.71343 1.74135,18.29209 4.5387,38.421 11.2967,61.66041 6.758,23.23942 17.47584,49.58781 26.8485,68.76001 9.37265,19.1723 17.39928,31.1674 29.5997,46.456 12.20042,15.2887 28.57365,33.8701 48.48723,50.6234 19.91357,16.7532 43.36617,31.6779 69.76109,44.6224 26.39492,12.9445 55.73063,23.9084 89.64878,29.765 33.91816,5.8567 72.41686,6.6064 102.41104,4.1169 29.99418,-2.4896 51.48259,-8.218 73.83872,-16.3821 22.35613,-8.1642 45.57878,-18.7636 64.25185,-29.1315 18.67307,-10.3679 32.79575,-20.5038 46.38755,-32.3163 13.5918,-11.8125 26.652,-25.3009 39.7732,-42.1774 13.1212,-16.8765 26.3027,-37.1403 37.0161,-57.4944 10.7135,-20.354 18.9585,-40.7974 25.1329,-62.03786 6.1744,-21.24047 10.2778,-43.27711 12.2713,-60.95663 1.9934,-17.67951 1.8766,-31.00116 1.2662,-42.0514 -0.6103,-11.05025 -1.7143,-19.82856 -3.8121,-27.18736 -2.0977,-7.35881 -5.1895,-13.2978 -9.4635,-18.32426 -4.274,-5.02647 -9.7305,-9.13981 -16.1961,-12.1989 -6.4655,-3.05909 -13.9399,-5.06327 -21.9654,-5.41834 -8.0256,-0.35507 -16.6015,0.9394 -24.7761,4.38169 -8.1746,3.44229 -15.9468,9.03215 -21.8143,16.2305 -5.8674,7.19834 -9.8293,16.00407 -12.0325,25.6848 -2.2033,9.68073 -2.6479,20.23537 -3.2314,31.12849 -0.5834,10.89312 -1.3057,22.1241 -3.6534,34.78852 -2.3477,12.66442 -6.3206,26.76177 -10.7061,39.02879 -4.3855,12.26701 -9.18349,22.70332 -16.27688,34.23038 -7.09339,11.52706 -16.48189,24.14458 -28.11727,36.56518 -11.63538,12.4205 -25.51717,24.6437 -39.39749,34.5034 -13.88033,9.8597 -27.75861,17.3555 -41.5086,23.323 -13.74999,5.9675 -27.37098,10.4064 -41.89163,13.3553 -14.52065,2.949 -29.94036,4.4079 -46.29344,3.6401 -16.35308,-0.7678 -33.63887,-3.7623 -51.03535,-8.2876 -17.39647,-4.5253 -34.90258,-10.5813 -52.38435,-19.8651 -17.48177,-9.2837 -34.93808,-21.795 -51.62516,-38.956 -16.68709,-17.1611 -32.60372,-38.97118 -43.28255,-57.36567 -10.67883,-18.3945 -16.11889,-33.3724 -19.99559,-49.25142 -3.8767,-15.87903 -6.18956,-32.65811 -6.4328,-49.07944 -0.24324,-16.42132 1.58336,-32.48367 4.80142,-47.94712 3.21807,-15.46345 7.82747,-30.32685 12.51171,-42.34942 4.68423,-12.02257 9.44299,-21.20334 15.77282,-31.17468 6.32983,-9.97134 14.23024,-20.7324 20.8738,-28.76158 6.64357,-8.02919 12.02978,-13.32587 17.78288,-18.76782 5.75311,-5.44195 11.87262,-11.02872 21.15664,-17.59753 9.28401,-6.5688 21.73162,-14.11907 35.25306,-20.41121 13.52144,-6.29214 28.11555,-11.32574 43.86155,-14.69959 15.746,-3.37384 32.6426,-5.08786 49.34158,-5.43687 16.69899,-0.34902 33.19919,0.6668 45.6704,2.2486 12.47121,1.5818 20.91271,3.72924 29.80182,6.98251 8.88912,3.25327 18.22541,7.61194 27.47465,12.43677 9.24925,4.82483 18.41096,10.11542 27.09405,16.36143 8.68308,6.24601 16.88709,13.44676 26.17789,22.68922 9.2908,9.24245 19.6679,20.52586 29.54279,29.59205 9.8749,9.06618 19.24687,15.91489 28.36755,19.62204 9.1208,3.70715 17.9897,4.27337 26.0752,3.94837 8.0856,-0.32499 15.3876,-1.54096 21.59,-4.34199 6.2024,-2.80103 11.3055,-7.187 15.8568,-11.78537 4.5514,-4.59837 8.5509,-9.40902 11.5514,-15.7374 3.0005,-6.32838 5.0019,-14.17469 5.0902,-21.82964 0.088,-7.65494 -1.7372,-15.11851 -5.3308,-22.93102 -3.5936,-7.81251 -8.9557,-15.97343 -16.1485,-24.76247 -7.1927,-8.78904 -16.216,-18.20551 -25.2858,-26.92028 -9.0699,-8.71477 -18.1858,-16.72726 -27.498,-24.28183 -9.31227,-7.55458 -18.82037,-14.65068 -29.05698,-21.10393 -10.23662,-6.45325 -21.20122,-12.26308 -33.20998,-18.09156 -12.00875,-5.82847 -25.06095,-11.67516 -36.6942,-16.70721 -11.63325,-5.03205 -21.84686,-9.24913 -28.47236,-11.93282 -6.6255,-2.6837 -9.6626,-3.83385 -9.13363,-8.95007 0.52897,-5.11623 4.62525,-14.19817 9.84315,-24.86839 5.2179,-10.67023 11.55708,-22.92799 18.44142,-36.67949 6.88434,-13.75149 14.31341,-28.99588 21.92833,-44.80179 7.61492,-15.80591 15.41518,-32.1723 22.62527,-46.46876 7.21008,-14.29646 13.82954,-26.52206 17.25111,-37.40765 3.42156,-10.88558 3.64496,-20.43121 2.48262,-28.58341 -1.16234,-8.15219 -3.71079,-14.91068 -8.53435,-20.91684 -4.82356,-6.00615 -11.92258,-11.25924 -21.14882,-14.17741 -9.22625,-2.91818 -20.57915,-3.50056 -30.02652,-1.89841 -9.44737,1.60215 -16.98798,5.3889 -23.33996,10.8514 -6.35198,5.46249 -11.51443,12.60002 -16.12203,20.87932 -4.60761,8.2793 -8.66007,17.69963 -30.41407,55.55018 -21.75399,37.85055 -61.20789,104.12869 -80.57853,136.99361 -19.37064,32.86492 -18.65755,32.31569 -18.9208,32.01376 -0.26325,-0.30192 -1.50375,-0.3567 -1.6965,-2.53964 -0.19276,-2.18294 0.66349,-6.49459 8.49984,-36.73575 7.83635,-30.24115 22.65222,-86.40939 30.17381,-117.834 7.5216,-31.42461 7.74846,-38.10444 6.71085,-45.01389 -1.03762,-6.90944 -3.34004,-14.04831 -6.94995,-20.05201 -3.60992,-6.0037 -8.5277,-10.87173 -13.95398,-14.05853 -5.42628,-3.18681 -11.36088,-4.69159 -17.35663,-5.70961 -5.99575,-1.01802 -12.05225,-1.54903 -18.3422,-0.92343 -6.28995,0.62561 -12.81255,2.408 -18.14494,5.90217 -5.33238,3.49417 -9.47339,8.69953 -13.40795,16.54542 -3.93455,7.84588 -7.66232,18.33132 -12.28227,30.11226 -4.61996,11.78093 -10.1318,24.8567 -14.86617,38.79654 -4.73436,13.93985 -8.69098,28.74266 -17.93537,57.13313 -9.24438,28.39046 -23.77587,70.36671 -32.29162,95.57183 -8.51576,25.20512 -11.0154,33.63788 -12.79678,39.54063 -1.78139,5.90275 -2.8444,9.27517 -4.3793,10.92418 -1.5349,1.64901 -3.54279,1.57513 -4.17178,-28.2849 -0.62898,-29.86003 0.12197,-89.50477 0.35183,-122.33843 0.22986,-32.83365 -0.0614,-38.85484 -2.29307,-44.90487 -2.23164,-6.05003 -6.4042,-12.12868 -11.13788,-16.91198 -4.73368,-4.7833 -10.02857,-8.27065 -16.36138,-10.73403 -6.3328,-2.46337 -13.7031,-3.90211 -21.89739,-3.38017 z"
       id="path332"
       inkscape:path-effect="#path-effect334"
       inkscape:original-d="m 542.01338,357.77306 c -9.0167,2.48408 -18.0345,4.96715 -27.0532,7.44923 -5.983,7.86193 -11.9668,15.72255 -17.9517,23.58233 -1.625,4.29768 -3.251,8.59418 -4.878,12.88978 -0.046,7.53458 -0.093,15.06787 -0.1413,22.60031 -1.3016,36.53398 -2.6042,73.0655 -3.9078,109.59675 -1.5931,53.89571 -3.1871,107.78826 -4.7822,161.68089 -0.1062,8.84111 -0.2135,17.68087 -0.3218,26.51981 -0.2153,4.47671 -0.4316,8.95225 -0.6489,13.42688 -1.9788,6.72243 -3.9586,13.44358 -5.9394,20.16388 -4.1695,14.09072 -8.3397,28.17989 -12.5111,42.26833 -2.7299,10.2708 -5.4607,20.54018 -8.1926,30.80877 -1.1594,7.48076 -2.3198,14.96023 -3.4812,22.43884 0.6861,16.45573 1.3713,32.90979 2.0554,49.36319 2.7985,20.1307 5.5958,40.25961 8.3922,60.38791 10.7193,26.35043 21.4371,52.69884 32.1542,79.04684 8.028,11.9965 16.0546,23.9916 24.0804,35.986 16.3748,18.5831 32.7481,37.1644 49.1206,55.7451 23.4544,14.9262 46.907,29.8509 70.3589,44.7748 29.3379,10.9653 58.6736,21.9292 88.0089,32.8923 38.5012,0.7507 76.9999,1.5004 115.4983,2.2491 21.4903,-5.7276 42.9787,-11.456 64.4666,-17.1855 23.2246,-10.5988 46.44723,-21.1982 69.66933,-31.7987 14.1243,-10.1354 28.24699,-20.2713 42.36899,-30.4084 13.0618,-13.488 26.1221,-26.9764 39.1816,-40.4662 13.1829,-20.2635 26.3644,-40.5273 39.5451,-60.7924 8.2463,-20.4432 16.4913,-40.88661 24.7354,-61.33129 4.1046,-22.03653 8.2081,-44.07316 12.3106,-66.11123 -0.1158,-13.32119 -0.2326,-26.64284 -0.3504,-39.96576 -1.1031,-8.77766 -2.2071,-17.55597 -3.3121,-26.33545 -3.0909,-5.93822 -6.1827,-11.8772 -9.2755,-17.8173 -5.4557,-4.1125 -10.9122,-8.22583 -16.3698,-12.34025 -7.4736,-2.00325 -14.948,-4.00742 -22.4235,-6.01263 -8.5752,1.29552 -17.1511,2.58999 -25.7282,3.88348 -7.7715,5.5911 -15.5437,11.18097 -23.3171,16.76996 -3.9611,8.80708 -7.923,17.61282 -11.886,26.41774 -0.4436,10.55605 -0.8883,21.11068 -1.3339,31.66452 -0.7213,11.23243 -1.4435,22.46341 -2.1668,33.69362 -3.972,14.0989 -7.9449,28.19624 -11.9188,42.29286 -4.7971,10.43764 -9.59509,20.87394 -14.39409,31.30932 -9.3879,12.619 -18.7763,25.23661 -28.166,37.85331 -13.8813,12.2246 -27.76313,24.4477 -41.64613,36.6701 -13.8779,7.4972 -27.7562,14.993 -41.6357,22.488 -13.6207,4.4401 -27.2417,8.8789 -40.8641,13.3168 -15.4192,1.4599 -30.8389,2.9188 -46.2598,4.3766 -17.2855,-2.9937 -34.5713,-5.9882 -51.8584,-8.9838 -17.5059,-6.0553 -35.012,-12.1113 -52.5196,-18.1684 -17.4559,-12.5107 -34.9122,-25.022 -52.3698,-37.5345 -15.9163,-21.8099 -31.8329,-43.62001 -47.7509,-65.43159 -5.4393,-14.97747 -10.8793,-29.95539 -16.3205,-44.9346 -2.3119,-16.77875 -4.6248,-33.55783 -6.9387,-50.33824 1.8277,-16.06199 3.6543,-32.12434 5.4799,-48.18801 4.6106,-14.86299 9.22,-29.72639 13.8285,-44.59109 4.76,-9.18017 9.5187,-18.36097 14.2766,-27.54296 7.9017,-10.76049 15.8021,-21.52155 23.7017,-32.28382 5.3874,-5.29592 10.7736,-10.59262 16.159,-15.89043 6.1208,-5.58602 12.2403,-11.1728 18.359,-16.7607 12.4491,-7.54958 24.8967,-15.09985 37.3436,-22.65127 14.5957,-5.03281 29.1898,-10.06642 43.7832,-15.10113 16.8983,-1.71309 33.7949,-3.42711 50.6908,-5.14216 16.5019,1.01686 33.0021,2.03269 49.5016,3.04753 8.4428,2.14852 16.8843,4.29596 25.3249,6.44243 9.3376,4.35982 18.6739,8.71847 28.0093,13.0762 9.1631,5.29182 18.3248,10.58243 27.4858,15.87215 8.2053,7.20204 16.4093,14.4028 24.6125,21.6027 10.37853,11.28487 20.75563,22.56829 31.13193,33.85093 9.3733,6.84996 18.7453,13.69864 28.11639,20.54646 8.8704,0.56725 17.7393,1.13347 26.6074,1.6987 7.3033,-1.21502 14.6053,-2.43098 21.9065,-3.64798 5.1043,-4.38513 10.2074,-8.7711 15.3096,-13.15815 4.0007,-4.80983 8.0002,-9.62048 11.9987,-14.43222 2.0026,-7.84564 4.004,-15.69196 6.0045,-23.53944 -1.8245,-7.46288 -3.6499,-14.92645 -5.4763,-22.39118 -5.3613,-8.16027 -10.7233,-16.32121 -16.0865,-24.48332 -9.0226,-9.41584 -18.0459,-18.8323 -27.0704,-28.24996 -9.1152,-8.0118 -18.2311,-16.02428 -27.3482,-24.03793 -9.50749,-7.09539 -19.01559,-14.1915 -28.52489,-21.28875 -10.964,-5.80905 -21.9286,-11.61888 -32.89443,-17.42982 -13.0517,-5.84591 -26.1039,-11.69259 -39.1573,-17.54038 -10.2131,-4.21627 -20.4267,-8.43337 -30.6416,-12.65155 -3.0361,-1.14918 -6.0732,-2.29931 -9.1113,-3.45046 4.0974,-9.08131 8.1937,-18.16325 12.2891,-27.24638 6.3404,-12.25724 12.6796,-24.51499 19.0179,-36.77398 7.4304,-15.24403 14.8594,-30.48845 22.2877,-45.73418 7.8016,-16.36607 15.6018,-32.73249 23.4013,-49.10024 6.62073,-12.22507 13.24023,-24.45064 19.85873,-36.67746 0.2244,-9.54501 0.4478,-19.09064 0.6702,-28.63746 -2.5476,-6.75778 -5.096,-13.51629 -7.6455,-20.27593 -7.0983,-5.25229 -14.19733,-10.50536 -21.29743,-15.75955 -11.3523,-0.5814 -22.7052,-1.16378 -34.0593,-1.74717 -7.54,3.78792 -15.0806,7.57469 -22.6224,11.36054 -5.1616,7.13878 -10.3241,14.27627 -15.4876,21.41291 -4.0516,9.42169 -8.1041,18.842 -12.1576,28.26149 -39.4545,66.2818 -78.9084,132.55994 -118.3641,198.83842 0.7141,-0.54824 1.4272,-1.09746 2.1393,-1.64769 -1.2395,-0.0538 -2.48,-0.10856 -3.7216,-0.16434 0.8573,-4.31082 1.7136,-8.62246 2.5688,-12.9352 14.8175,-56.16949 29.6333,-112.33775 44.4485,-168.50812 0.2279,-6.67911 0.4547,-13.35895 0.6806,-20.03993 -2.3015,-7.13814 -4.604,-14.27699 -6.9074,-21.41699 -4.917,-4.8672 -9.8348,-9.73521 -14.7536,-14.60431 -5.9339,-1.50384 -11.8685,-3.00862 -17.8042,-4.51443 -6.0557,-0.53003 -12.1122,-1.06104 -18.1697,-1.59306 -6.522,1.78348 -13.0446,3.56589 -19.5684,5.34734 -4.1402,5.20658 -8.2812,10.41195 -12.4233,15.61642 -3.7269,10.48685 -7.4547,20.97228 -11.1835,31.45691 -5.5111,13.07732 -11.0229,26.15311 -16.5359,39.22817 -3.9558,14.80442 -7.9124,29.60724 -11.8701,44.40937 -14.531,41.97891 -29.0626,83.95513 -43.5953,125.9312 -2.4988,8.43411 -4.9984,16.86688 -7.4991,25.29882 -1.0621,3.37357 -2.1251,6.746 -3.1891,10.1175 -2.007,-0.0729 -4.0149,-0.14677 -6.0238,-0.22165 0.752,-59.64613 1.5029,-119.29087 2.2529,-178.93781 -0.2903,-6.02043 -0.5816,-12.04162 -0.8739,-18.06392 -4.1717,-6.07787 -8.3443,-12.15649 -12.5179,-18.23623 -5.2941,-3.48649 -10.589,-6.97384 -15.885,-10.46226 -7.3696,-1.4378 -14.7399,-2.87653 -22.1113,-4.3163 z" />
    <path
       style="fill:#ffffff"
       d="m 806.36245,752.90435 c 0.003,30.40015 0.01,91.19945 0.007,124.18044 -0.003,32.981 -0.0143,38.14347 -1.16492,42.59401 -1.15058,4.45053 -3.43985,8.18964 -6.31737,10.6428 -2.87751,2.45317 -6.34382,3.62075 -10.14076,4.18086 -3.79694,0.56011 -7.92474,0.51251 -11.57555,-0.36499 -3.6508,-0.8775 -6.82461,-2.58543 -10.15172,-5.30217 -3.32712,-2.71673 -6.8071,-6.44248 -9.59961,-11.5115 -2.79252,-5.06901 -4.89688,-11.48117 -6.10894,-14.98571 -1.21207,-3.50455 -1.53202,-4.10129 -1.75647,-4.52894 -0.22446,-0.42764 -0.35336,-0.68614 -14.70069,3.50043 -14.34733,4.18656 -42.91203,12.81925 -57.29574,17.19341 -14.38371,4.37416 -14.58551,4.4896 -14.64401,4.95392 -0.0585,0.46432 0.0265,1.27622 1.60318,6.68687 1.57669,5.41065 4.64469,15.41952 7.92635,23.36402 3.28165,7.9445 6.77645,13.8242 12.93815,20.45959 6.16171,6.6354 14.98946,14.02623 24.23333,19.71617 9.24388,5.68993 18.90298,9.67894 27.75271,12.44174 8.84972,2.7628 16.88962,4.2995 28.51878,4.9582 11.62917,0.6587 26.84707,0.4396 42.22718,-1.6235 15.38011,-2.0631 30.9218,-5.9698 42.21201,-9.92854 11.29021,-3.95876 18.32886,-7.96938 24.30703,-12.61158 5.97818,-4.6422 10.89587,-9.91588 15.23084,-15.52183 4.33498,-5.60595 8.08708,-11.54405 10.80329,-17.40302 2.7162,-5.85897 4.39641,-11.63888 5.58762,-18.53218 1.19121,-6.89331 1.89326,-14.89982 2.2744,-23.76047 0.38114,-8.86066 0.44127,-18.57497 0.19932,-50.27189 -0.24194,-31.69693 -0.78597,-85.37415 -1.06246,-112.30148 -0.2765,-26.92732 -0.2855,-27.1035 -0.43846,-27.16797 -0.15297,-0.0645 -0.45057,-0.016 -17.28598,0.0934 -16.83542,0.10941 -50.20732,0.27956 -66.89411,0.36464 -16.6868,0.0851 -16.6874,0.0851 -16.68423,30.48524 z"
       id="path336"
       inkscape:path-effect="#path-effect338"
       inkscape:original-d="m 806.35928,722.50419 c 0.01,60.80031 0.014,121.59961 0.019,182.39792 -0.011,5.16368 -0.023,10.32615 -0.035,15.48773 -2.2883,3.74023 -4.5776,7.47932 -6.8679,11.21748 -3.4655,1.16864 -6.9318,2.33623 -10.3992,3.50284 -4.1269,-0.0466 -8.2547,-0.0942 -12.3835,-0.1428 -3.173,-1.70702 -6.3468,-3.41496 -9.5217,-5.12394 -3.4791,-3.72489 -6.9591,-7.45062 -10.4401,-11.17743 -2.1034,-6.41141 -4.2078,-12.82356 -6.3132,-19.23683 -0.319,-0.5958 -0.6389,-1.19257 -0.9599,-1.79035 -0.1279,-0.2575 -0.2568,-0.516 -0.3867,-0.7755 -28.5648,8.63404 -57.1295,17.26673 -85.6958,25.89859 -0.2008,0.11644 -0.4026,0.23187 -0.6054,0.34631 0.086,0.81293 0.171,1.62483 0.255,2.43575 3.0691,10.01028 6.1371,20.01915 9.2042,30.02726 3.4959,5.8809 6.9907,11.7606 10.4846,17.6395 8.8291,7.3922 17.6569,14.78297 26.4839,22.17307 9.6606,3.9902 19.3197,7.97921 28.9781,11.96731 8.0411,1.5378 16.081,3.0745 24.12,4.6102 15.2195,-0.2181 30.4374,-0.4372 45.6545,-0.6573 15.5434,-3.9059 31.0851,-7.8126 46.6261,-11.72041 7.0398,-4.0097 14.0784,-8.0204 21.1162,-12.032 4.9189,-5.273 9.8366,-10.54667 14.7535,-15.82147 3.7532,-5.9373 7.5053,-11.8754 11.2565,-17.8146 1.6813,-5.7791 3.3615,-11.55901 5.0407,-17.34003 0.7031,-8.00585 1.4051,-16.01237 2.1062,-24.02006 0.061,-9.7137 0.1213,-19.42801 0.1804,-29.14351 -0.543,-53.67837 -1.0871,-107.35559 -1.6321,-161.03489 -0.01,-0.17529 -0.017,-0.35157 -0.027,-0.52885 -0.2967,0.0495 -0.5943,0.098 -0.893,0.14554 -33.3723,0.17116 -66.7442,0.34132 -100.1178,0.51047 z" />
  </g>
  <g
     inkscape:groupmode="layer"
     id="layer1"
     inkscape:label="Clip"
     transform="translate(-453.08133,-277.46685)" />
</svg>
